<svg width="243" height="243" viewBox="0 0 243 243" fill="none" xmlns="http://www.w3.org/2000/svg">
<path d="M91.8966 70.9598L68.3802 59.2018C68.2704 59.1469 68.1528 59.1548 68.0392 59.1116L67.5571 56.2113C66.7379 51.2808 63.575 47.0009 59.1068 44.7668L50.0059 40.2165C52.9965 36.7753 54.8699 32.3425 54.8699 27.4355V19.5968C54.8699 8.7911 46.0787 0 35.2729 0C24.467 0 15.6758 8.7911 15.6758 19.5968V27.4355C15.6758 32.3425 17.5493 36.7753 20.5398 40.2165L11.4389 44.7668C6.96686 47.0009 3.80782 51.2808 2.98866 56.2113L0.053018 73.821C-0.135114 74.9576 0.182358 76.1177 0.927047 76.9996C1.67174 77.8814 2.76525 78.387 3.91756 78.387H66.6282C67.7805 78.387 68.874 77.8814 69.6187 76.9996C70.3634 76.1177 70.6809 74.9576 70.4927 73.821L69.6226 68.5886L88.3927 77.9755C88.9532 78.2538 89.5528 78.387 90.1407 78.387C91.5792 78.387 92.9627 77.5953 93.6525 76.2196C94.6206 74.2834 93.8328 71.9318 91.8966 70.9598ZM23.5146 19.5968C23.5146 13.1141 28.7902 7.8387 35.2729 7.8387C41.7556 7.8387 47.0311 13.1141 47.0311 19.5968V27.4355C47.0311 33.9181 41.7556 39.1935 35.2729 39.1935C28.7902 39.1935 23.5146 33.9181 23.5146 27.4355V19.5968ZM8.54639 70.5483L10.7217 57.5008C11.1332 55.0355 12.7127 52.8956 14.9468 51.7785L25.2705 46.6168C25.9799 46.2601 26.4738 45.6879 26.8422 45.0451C29.4055 46.2836 32.2432 47.0322 35.2729 47.0322C38.3026 47.0322 41.1402 46.2836 43.7035 45.049C44.0759 45.6879 44.5658 46.264 45.2752 46.6207L55.5989 51.7825C57.833 52.8995 59.4125 55.0394 59.8241 57.5047L61.9994 70.5483H8.54639Z" fill="black"/>
<path d="M133.258 23.5161C133.258 17.0335 127.983 11.7581 121.5 11.7581C115.017 11.7581 109.742 17.0335 109.742 23.5161C109.742 28.6191 113.03 32.9304 117.581 34.5531V54.871C117.581 57.0345 119.336 58.7904 121.5 58.7904C123.663 58.7904 125.419 57.0345 125.419 54.871V34.5531C129.97 32.9304 133.258 28.6191 133.258 23.5161ZM121.5 27.4355C119.34 27.4355 117.581 25.6757 117.581 23.5161C117.581 21.3566 119.34 19.5968 121.5 19.5968C123.66 19.5968 125.419 21.3566 125.419 23.5161C125.419 25.6757 123.66 27.4355 121.5 27.4355Z" fill="black"/>
<path d="M82.3058 90.1451H61.9876C60.3649 85.5947 56.0536 82.3064 50.9505 82.3064C44.4678 82.3064 39.1923 87.5818 39.1923 94.0644C39.1923 100.547 44.4678 105.822 50.9505 105.822C56.0536 105.822 60.3649 102.534 61.9876 97.9837H82.3058C84.4693 97.9837 86.2252 96.2279 86.2252 94.0644C86.2252 91.9009 84.4693 90.1451 82.3058 90.1451ZM50.9505 97.9837C48.7909 97.9837 47.0311 96.224 47.0311 94.0644C47.0311 91.9048 48.7909 90.1451 50.9505 90.1451C53.1101 90.1451 54.8699 91.9048 54.8699 94.0644C54.8699 96.224 53.1101 97.9837 50.9505 97.9837Z" fill="black"/>
<path d="M192.049 82.3064C186.946 82.3064 182.635 85.5947 181.012 90.1451H160.694C158.531 90.1451 156.775 91.9009 156.775 94.0644C156.775 96.2279 158.531 97.9837 160.694 97.9837H181.012C182.635 102.534 186.946 105.822 192.049 105.822C198.532 105.822 203.808 100.547 203.808 94.0644C203.808 87.5818 198.532 82.3064 192.049 82.3064ZM192.049 97.9837C189.89 97.9837 188.13 96.224 188.13 94.0644C188.13 91.9048 189.89 90.1451 192.049 90.1451C194.209 90.1451 195.969 91.9048 195.969 94.0644C195.969 96.224 194.209 97.9837 192.049 97.9837Z" fill="black"/>
<path d="M240.011 56.2113C239.192 51.2808 236.029 47.0009 231.561 44.7668L222.46 40.2165C225.451 36.7753 227.324 32.3425 227.324 27.4355V19.5968C227.324 8.7911 218.533 0 207.727 0C196.921 0 188.13 8.7911 188.13 19.5968V27.4355C188.13 32.3425 190.004 36.7753 192.994 40.2165L183.893 44.7668C179.421 47.0009 176.262 51.2808 175.443 56.2113L174.961 59.1116C174.847 59.1548 174.73 59.1508 174.62 59.2018L151.103 70.9598C149.167 71.9279 148.383 74.2834 149.351 76.2196C150.037 77.5953 151.421 78.387 152.859 78.387C153.447 78.387 154.047 78.2538 154.607 77.9755L173.377 68.5886L172.503 73.821C172.315 74.9576 172.633 76.1177 173.377 76.9996C174.126 77.8814 175.22 78.387 176.372 78.387H239.082C240.235 78.387 241.328 77.8814 242.073 76.9996C242.818 76.1177 243.135 74.9576 242.947 73.821L240.011 56.2113ZM195.969 19.5968C195.969 13.1141 201.244 7.8387 207.727 7.8387C214.21 7.8387 219.485 13.1141 219.485 19.5968V27.4355C219.485 33.9181 214.21 39.1935 207.727 39.1935C201.244 39.1935 195.969 33.9181 195.969 27.4355V19.5968ZM181.001 70.5483L183.176 57.5008C183.587 55.0355 185.167 52.8956 187.401 51.7785L197.725 46.6168C198.434 46.2601 198.928 45.6879 199.296 45.0451C201.86 46.2836 204.697 47.0322 207.727 47.0322C210.757 47.0322 213.594 46.2836 216.158 45.049C216.53 45.6879 217.02 46.264 217.729 46.6207L228.053 51.7825C230.287 52.8995 231.867 55.0394 232.278 57.5047L234.454 70.5483H181.001Z" fill="black"/>
<path d="M240.011 220.824C239.192 215.894 236.029 211.614 231.561 209.38L222.46 204.829C225.451 201.388 227.324 196.955 227.324 192.048V184.21C227.324 173.717 219.015 165.193 208.64 164.707L175.102 153.529C172.488 146.141 166.311 140.423 158.668 138.514L141.097 134.116V133.258C141.097 131.094 139.341 129.339 137.178 129.339C135.014 129.339 133.258 131.094 133.258 133.258V137.177C133.258 143.66 127.983 148.935 121.5 148.935C115.017 148.935 109.742 143.66 109.742 137.177V133.258C109.742 131.094 107.986 129.339 105.822 129.339C103.659 129.339 101.903 131.094 101.903 133.258V134.116L84.3322 138.51C76.6893 140.423 70.5123 146.137 67.8981 153.525L34.3597 164.703C23.985 165.193 15.6758 173.717 15.6758 184.21V192.048C15.6758 196.955 17.5493 201.388 20.5398 204.829L11.4389 209.38C6.96687 211.614 3.80782 215.894 2.98866 220.824L0.053018 238.434C-0.135114 239.571 0.182358 240.731 0.927047 241.613C1.67174 242.494 2.76525 243 3.91756 243H66.6282C67.7805 243 68.874 242.494 69.6187 241.613C70.3634 240.731 70.6809 239.571 70.4927 238.434L67.5571 220.824C66.7379 215.894 63.575 211.614 59.1068 209.38L50.006 204.829C52.9965 201.388 54.87 196.955 54.87 192.048V184.21C54.87 177.88 51.801 172.299 47.1291 168.712L65.0604 162.735L58.9579 183.085C58.6012 184.272 58.8286 185.554 59.5693 186.549C60.3023 187.545 61.4702 188.129 62.7088 188.129H117.581V208.447C113.03 210.07 109.742 214.381 109.742 219.484C109.742 225.966 115.017 231.242 121.5 231.242C127.983 231.242 133.258 225.966 133.258 219.484C133.258 214.381 129.97 210.07 125.419 208.447V188.129H180.291C181.53 188.129 182.698 187.545 183.435 186.549C184.175 185.554 184.403 184.268 184.046 183.085L177.943 162.735L195.875 168.712C191.199 172.299 188.13 177.88 188.13 184.21V192.048C188.13 196.955 190.004 201.388 192.994 204.829L183.893 209.38C179.421 211.614 176.262 215.894 175.443 220.824L172.507 238.434C172.319 239.571 172.637 240.731 173.381 241.613C174.126 242.494 175.219 243 176.372 243H239.082C240.235 243 241.328 242.494 242.073 241.613C242.818 240.731 243.135 239.571 242.947 238.434L240.011 220.824ZM121.5 223.403C119.34 223.403 117.581 221.643 117.581 219.484C117.581 217.324 119.34 215.564 121.5 215.564C123.66 215.564 125.419 217.324 125.419 219.484C125.419 221.643 123.66 223.403 121.5 223.403ZM219.485 184.21V192.048C219.485 198.531 214.21 203.806 207.727 203.806C201.244 203.806 195.969 198.531 195.969 192.048V184.21C195.969 177.727 201.24 172.455 207.719 172.452C207.723 172.452 207.723 172.452 207.727 172.452C207.731 172.452 207.731 172.452 207.735 172.452C214.214 172.455 219.485 177.727 219.485 184.21ZM23.5146 184.21C23.5146 177.727 28.7862 172.455 35.265 172.452C35.269 172.452 35.269 172.452 35.2729 172.452C35.2768 172.452 35.2768 172.452 35.2807 172.452C41.7595 172.455 47.0311 177.727 47.0311 184.21V192.048C47.0311 198.531 41.7556 203.806 35.2729 203.806C28.7902 203.806 23.5146 198.531 23.5146 192.048V184.21ZM59.828 222.114L61.9994 235.161H8.54639L10.7217 222.114C11.1332 219.648 12.7127 217.508 14.9468 216.391L25.2705 211.23C25.9799 210.873 26.4738 210.301 26.8422 209.658C29.4055 210.897 32.2432 211.645 35.2729 211.645C38.3026 211.645 41.1402 210.897 43.7035 209.662C44.0759 210.301 44.5658 210.877 45.2752 211.234L55.599 216.395C57.8369 217.512 59.4165 219.648 59.828 222.114ZM67.9765 180.29L75.0157 156.821C76.5953 151.55 80.8949 147.45 86.2292 146.117L102.581 142.029C104.756 150.48 112.38 156.774 121.5 156.774C130.62 156.774 138.244 150.48 140.415 142.026L156.767 146.113C162.105 147.446 166.401 151.55 167.98 156.817L175.024 180.29H67.9765ZM181.001 235.161L183.176 222.114C183.587 219.648 185.167 217.508 187.401 216.391L197.725 211.23C198.434 210.873 198.928 210.301 199.296 209.658C201.86 210.897 204.697 211.645 207.727 211.645C210.757 211.645 213.594 210.897 216.158 209.662C216.53 210.301 217.02 210.877 217.729 211.234L228.053 216.395C230.287 217.512 231.867 219.652 232.278 222.118L234.454 235.161H181.001Z" fill="black"/>
<path d="M121.5 137.177C99.8883 137.177 82.3058 119.595 82.3058 97.9839V90.1452C82.3058 68.5339 99.8883 50.9517 121.5 50.9517C143.112 50.9517 160.694 68.5339 160.694 90.1452V97.9839C160.694 119.595 143.112 137.177 121.5 137.177Z" fill="#38B6FF"/>
<path d="M125.419 90.145H117.581C115.421 90.145 113.661 88.3853 113.661 86.2257C113.661 84.0661 115.417 82.3063 117.581 82.3063H125.419C127.579 82.3063 129.339 84.0622 129.339 86.2257C129.339 88.3892 131.095 90.145 133.258 90.145C135.422 90.145 137.178 88.3892 137.178 86.2257C137.178 79.7431 131.902 74.4676 125.419 74.4676V70.5483C125.419 68.3848 123.663 66.6289 121.5 66.6289C119.336 66.6289 117.581 68.3848 117.581 70.5483V74.4676C111.098 74.4676 105.822 79.7431 105.822 86.2257C105.822 92.7083 111.098 97.9838 117.581 97.9838H125.419C127.579 97.9838 129.339 99.7436 129.339 101.903C129.339 104.063 127.583 105.822 125.419 105.822H117.581C115.421 105.822 113.661 104.067 113.661 101.903C113.661 99.7396 111.905 97.9838 109.742 97.9838C107.578 97.9838 105.822 99.7396 105.822 101.903C105.822 108.386 111.098 113.661 117.581 113.661V117.581C117.581 119.744 119.336 121.5 121.5 121.5C123.663 121.5 125.419 119.744 125.419 117.581V113.661C131.902 113.661 137.178 108.386 137.178 101.903C137.178 95.4205 131.902 90.145 125.419 90.145Z" fill="white"/>
</svg>
