<svg width="237" height="237" viewBox="0 0 237 237" fill="none" xmlns="http://www.w3.org/2000/svg">
<path d="M224.812 19.7812H209.625C207.525 19.7812 205.828 21.4785 205.828 23.5781V122.297H213.422H221.016H228.609V23.5781C228.609 21.4785 226.912 19.7812 224.812 19.7812Z" fill="#38B6FF"/>
<path d="M194.438 46.3594H179.25C177.15 46.3594 175.453 48.0566 175.453 50.1562V122.297H183.047H190.641H198.234V50.1562C198.234 48.0566 196.537 46.3594 194.438 46.3594Z" fill="#38B6FF"/>
<path d="M164.062 57.75H148.875C146.775 57.75 145.078 59.4472 145.078 61.5469V122.297H152.672H160.266H167.859V61.5469C167.859 59.4472 166.162 57.75 164.062 57.75Z" fill="#38B6FF"/>
<path d="M133.688 69.1406H118.5C116.4 69.1406 114.703 70.8378 114.703 72.9375V122.297H122.297H129.891H137.484V72.9375C137.484 70.8378 135.787 69.1406 133.688 69.1406Z" fill="#38B6FF"/>
<path d="M53.9531 221.016C56.0501 221.016 57.75 219.316 57.75 217.219C57.75 215.122 56.0501 213.422 53.9531 213.422C51.8562 213.422 50.1562 215.122 50.1562 217.219C50.1562 219.316 51.8562 221.016 53.9531 221.016Z" fill="black"/>
<path d="M232.406 126.094H110.906C108.807 126.094 107.109 124.397 107.109 122.297C107.109 120.201 108.807 118.5 110.906 118.5H232.406C234.506 118.5 236.203 120.201 236.203 122.297C236.203 124.397 234.506 126.094 232.406 126.094Z" fill="black"/>
<path d="M183.047 0.796875H160.266C158.166 0.796875 156.469 2.49788 156.469 4.59375C156.469 6.68962 158.166 8.39062 160.266 8.39062H171.975C153.534 34.1866 127.559 52.9242 98.069 62.3063C88.5161 48.1173 72.3072 38.7656 53.9531 38.7656C24.6413 38.7656 0.796875 62.61 0.796875 91.9219C0.796875 117.319 18.7105 138.585 42.5625 143.818V160.266H38.7656C36.666 160.266 34.9688 161.963 34.9688 164.062V217.219C34.9688 227.687 43.4851 236.203 53.9531 236.203C64.4211 236.203 72.9375 227.687 72.9375 217.219V164.062C72.9375 161.963 71.2403 160.266 69.1406 160.266H65.3438V143.818C89.1957 138.585 107.109 117.319 107.109 91.9219C107.109 83.7168 105.184 75.9712 101.851 69.0267C132.856 58.8093 160.091 38.7694 179.25 11.2611V27.375C179.25 29.4709 180.947 31.1719 183.047 31.1719C185.147 31.1719 186.844 29.4709 186.844 27.375V4.59375C186.844 2.49788 185.147 0.796875 183.047 0.796875ZM65.3438 217.219C65.3438 223.499 60.2332 228.609 53.9531 228.609C47.6731 228.609 42.5625 223.499 42.5625 217.219V167.859H65.3438V217.219ZM57.75 160.266H50.1562V144.884C51.4168 144.976 52.6698 145.078 53.9531 145.078C55.2365 145.078 56.4894 144.976 57.75 144.884V160.266ZM99.5156 91.9219C99.5156 117.046 79.077 137.484 53.9531 137.484C28.8292 137.484 8.39062 117.046 8.39062 91.9219C8.39062 66.798 28.8292 46.3594 53.9531 46.3594C68.7875 46.3594 81.9513 53.5165 90.274 64.5274C87.5327 65.2336 84.7686 65.8487 81.9779 66.3955C75.0296 58.7752 65.0552 53.9531 53.9531 53.9531C33.0172 53.9531 15.9844 70.9859 15.9844 91.9219C15.9844 112.858 33.0172 129.891 53.9531 129.891C74.8891 129.891 91.9219 112.858 91.9219 91.9219C91.9219 85.0685 90.069 78.648 86.8796 73.0932C89.4387 72.5312 91.975 71.9123 94.4924 71.2213C97.6817 77.4406 99.5156 84.4648 99.5156 91.9219ZM53.9531 76.7344C62.3974 76.7344 70.7201 75.9788 78.8948 74.6309C82.312 79.5441 84.3281 85.4976 84.3281 91.9219C84.3281 108.67 70.7011 122.297 53.9531 122.297C37.2051 122.297 23.5781 108.67 23.5781 91.9219C23.5781 75.1739 37.2051 61.5469 53.9531 61.5469C60.9508 61.5469 67.3865 63.9503 72.5274 67.9408C66.4145 68.7268 60.2142 69.1406 53.9531 69.1406C51.8535 69.1406 50.1562 70.8416 50.1562 72.9375C50.1562 75.0334 51.8535 76.7344 53.9531 76.7344Z" fill="black"/>
<path d="M122.297 152.672C124.394 152.672 126.094 150.972 126.094 148.875C126.094 146.778 124.394 145.078 122.297 145.078C120.2 145.078 118.5 146.778 118.5 148.875C118.5 150.972 120.2 152.672 122.297 152.672Z" fill="black"/>
<path d="M122.297 175.453C124.394 175.453 126.094 173.753 126.094 171.656C126.094 169.559 124.394 167.859 122.297 167.859C120.2 167.859 118.5 169.559 118.5 171.656C118.5 173.753 120.2 175.453 122.297 175.453Z" fill="black"/>
<path d="M122.297 198.234C124.394 198.234 126.094 196.534 126.094 194.438C126.094 192.341 124.394 190.641 122.297 190.641C120.2 190.641 118.5 192.341 118.5 194.438C118.5 196.534 120.2 198.234 122.297 198.234Z" fill="black"/>
<path d="M122.297 221.016C124.394 221.016 126.094 219.316 126.094 217.219C126.094 215.122 124.394 213.422 122.297 213.422C120.2 213.422 118.5 215.122 118.5 217.219C118.5 219.316 120.2 221.016 122.297 221.016Z" fill="black"/>
<path d="M221.016 152.672H137.484C135.385 152.672 133.688 150.975 133.688 148.875C133.688 146.775 135.385 145.078 137.484 145.078H221.016C223.115 145.078 224.812 146.775 224.812 148.875C224.812 150.975 223.115 152.672 221.016 152.672Z" fill="black"/>
<path d="M221.016 198.234H137.484C135.385 198.234 133.688 196.537 133.688 194.438C133.688 192.338 135.385 190.641 137.484 190.641H221.016C223.115 190.641 224.812 192.338 224.812 194.438C224.812 196.537 223.115 198.234 221.016 198.234Z" fill="black"/>
<path d="M171.656 175.453H137.484C135.385 175.453 133.688 173.756 133.688 171.656C133.688 169.557 135.385 167.859 137.484 167.859H171.656C173.756 167.859 175.453 169.557 175.453 171.656C175.453 173.756 173.756 175.453 171.656 175.453Z" fill="black"/>
<path d="M221.016 175.453H186.844C184.744 175.453 183.047 173.756 183.047 171.656C183.047 169.557 184.744 167.859 186.844 167.859H221.016C223.115 167.859 224.812 169.557 224.812 171.656C224.812 173.756 223.115 175.453 221.016 175.453Z" fill="black"/>
<path d="M171.656 221.016H137.484C135.385 221.016 133.688 219.318 133.688 217.219C133.688 215.119 135.385 213.422 137.484 213.422H171.656C173.756 213.422 175.453 215.119 175.453 217.219C175.453 219.318 173.756 221.016 171.656 221.016Z" fill="black"/>
<path d="M221.016 221.016H186.844C184.744 221.016 183.047 219.318 183.047 217.219C183.047 215.119 184.744 213.422 186.844 213.422H221.016C223.115 213.422 224.812 215.119 224.812 217.219C224.812 219.318 223.115 221.016 221.016 221.016Z" fill="black"/>
</svg>
