<svg width="237" height="237" viewBox="0 0 237 237" fill="none" xmlns="http://www.w3.org/2000/svg">
<path d="M119.996 103.313C124.924 103.313 129.644 104.771 133.688 107.337V42.5625C133.688 40.4628 131.99 38.7656 129.891 38.7656H107.109C105.01 38.7656 103.312 40.4628 103.312 42.5625V107.056C108.381 104.672 114.023 103.313 119.996 103.313Z" fill="#38B6FF"/>
<path d="M146.901 117.107H146.973C153.906 109.019 164.07 103.821 175.453 103.392V61.5469C175.453 59.4472 173.756 57.75 171.656 57.75H148.875C146.775 57.75 145.078 59.4472 145.078 61.5469V116.154C145.693 116.457 146.32 116.75 146.901 117.107Z" fill="#38B6FF"/>
<path d="M63.0428 103.312C71.5972 103.312 79.582 107.588 84.3281 114.703C85.657 115.033 86.9252 115.497 88.125 116.07L90.9575 116.119C91.265 115.785 91.6067 115.489 91.9219 115.17V61.5469C91.9219 59.4472 90.2247 57.75 88.125 57.75H65.3438C63.2441 57.75 61.5469 59.4472 61.5469 61.5469V103.388C62.0481 103.369 62.5379 103.312 63.0428 103.312Z" fill="#38B6FF"/>
<path d="M198.234 114.703C207.161 116.936 213.422 124.955 213.422 134.155V137.484H217.219V42.5625C217.219 40.4628 215.522 38.7656 213.422 38.7656H190.641C188.541 38.7656 186.844 40.4628 186.844 42.5625V105.34C191.411 107.257 195.406 110.462 198.234 114.703Z" fill="#38B6FF"/>
<path d="M23.9578 137.484C25.9664 122.563 36.3053 110.299 50.1562 105.507V42.5625C50.1562 40.4628 48.459 38.7656 46.3594 38.7656H23.5781C21.4785 38.7656 19.7812 40.4628 19.7812 42.5625V137.484H23.9578Z" fill="#38B6FF"/>
<path d="M34.9688 23.5781C37.8848 23.5781 40.516 22.4467 42.5321 20.6393L65.5222 33.1804C65.4311 33.7651 65.3438 34.3575 65.3438 34.9688C65.3438 41.2488 70.4543 46.3594 76.7344 46.3594C83.0144 46.3594 88.125 41.2488 88.125 34.9688C88.125 34.3575 88.0377 33.7651 87.9427 33.1804L110.933 20.6393C112.953 22.4467 115.584 23.5781 118.5 23.5781C121.515 23.5781 124.241 22.3821 126.28 20.4647L149.027 33.4652C148.962 33.9588 148.875 34.4524 148.875 34.9688C148.875 41.2488 153.986 46.3594 160.266 46.3594C166.546 46.3594 171.656 41.2488 171.656 34.9688C171.656 34.4524 171.569 33.9588 171.504 33.4614L194.251 20.4609C196.29 22.3821 199.017 23.5781 202.031 23.5781C208.311 23.5781 213.422 18.4675 213.422 12.1875C213.422 5.90747 208.311 0.796875 202.031 0.796875C195.751 0.796875 190.641 5.90747 190.641 12.1875C190.641 12.7039 190.728 13.1975 190.793 13.6949L168.045 26.6916C166.007 24.7741 163.28 23.5781 160.266 23.5781C157.251 23.5781 154.525 24.7741 152.486 26.6916L129.739 13.6949C129.803 13.1975 129.891 12.7039 129.891 12.1875C129.891 5.90747 124.78 0.796875 118.5 0.796875C112.22 0.796875 107.109 5.90747 107.109 12.1875C107.109 12.7988 107.197 13.3911 107.292 13.9758L84.3015 26.5169C82.2816 24.7096 79.6504 23.5781 76.7344 23.5781C73.8184 23.5781 71.1871 24.7096 69.171 26.5169L46.1809 13.9758C46.272 13.3911 46.3594 12.7988 46.3594 12.1875C46.3594 5.90747 41.2488 0.796875 34.9688 0.796875C28.6887 0.796875 23.5781 5.90747 23.5781 12.1875C23.5781 18.4675 28.6887 23.5781 34.9688 23.5781ZM202.031 8.39062C204.123 8.39062 205.828 10.0954 205.828 12.1875C205.828 14.2796 204.123 15.9844 202.031 15.9844C199.939 15.9844 198.234 14.2796 198.234 12.1875C198.234 10.0954 199.939 8.39062 202.031 8.39062ZM160.266 31.1719C162.358 31.1719 164.062 32.8767 164.062 34.9688C164.062 37.0608 162.358 38.7656 160.266 38.7656C158.174 38.7656 156.469 37.0608 156.469 34.9688C156.469 32.8767 158.174 31.1719 160.266 31.1719ZM118.5 8.39062C120.592 8.39062 122.297 10.0954 122.297 12.1875C122.297 14.2796 120.592 15.9844 118.5 15.9844C116.408 15.9844 114.703 14.2796 114.703 12.1875C114.703 10.0954 116.408 8.39062 118.5 8.39062ZM76.7344 31.1719C78.8265 31.1719 80.5312 32.8767 80.5312 34.9688C80.5312 37.0608 78.8265 38.7656 76.7344 38.7656C74.6423 38.7656 72.9375 37.0608 72.9375 34.9688C72.9375 32.8767 74.6423 31.1719 76.7344 31.1719ZM34.9688 8.39062C37.0608 8.39062 38.7656 10.0954 38.7656 12.1875C38.7656 14.2796 37.0608 15.9844 34.9688 15.9844C32.8767 15.9844 31.1719 14.2796 31.1719 12.1875C31.1719 10.0954 32.8767 8.39062 34.9688 8.39062Z" fill="black"/>
<path d="M236.055 231.362L232.277 218.141C229.532 208.532 221.737 201.344 211.937 199.385L190.641 195.121V194.438C190.641 194.339 190.591 194.255 190.584 194.16C197.638 190.086 202.893 183.267 204.902 175.165C211.907 173.813 217.219 167.658 217.219 160.266V134.155C217.219 123.683 210.441 114.536 200.566 111.419C195.038 103.939 186.312 99.5156 176.953 99.5156C165.316 99.5156 154.286 104.228 146.176 112.459C145.336 112.083 144.505 111.7 143.613 111.419C138.084 103.939 129.359 99.5156 120 99.5156C107.964 99.5156 97.0668 104.467 89.2186 112.425C88.3833 112.049 87.5366 111.692 86.6633 111.415C81.1313 103.939 72.4061 99.5156 63.0468 99.5156C39.1872 99.5156 19.7814 118.921 19.7814 142.781V160.266C19.7814 167.658 25.0932 173.813 32.0984 175.165C34.1108 183.267 39.3619 190.086 46.4165 194.16C46.4089 194.255 46.3595 194.339 46.3595 194.438V195.121L25.0666 199.381C15.2631 201.34 7.46811 208.528 4.72297 218.138L0.945081 231.358C0.61855 232.505 0.846363 233.735 1.56397 234.688C2.28158 235.641 3.40166 236.203 4.59388 236.203H61.547H175.453H232.406C233.599 236.203 234.719 235.645 235.436 234.692C236.154 233.739 236.385 232.509 236.055 231.362ZM175.453 190.641C164.837 190.641 155.706 183.149 153.344 172.974C157.502 170.263 160.266 165.589 160.266 160.266V150.47C164.268 148.902 167.97 146.54 171.003 143.506L172.013 142.496L172.416 142.8C179.892 148.408 188.94 151.795 198.234 152.524V167.859C198.234 180.423 188.017 190.641 175.453 190.641ZM160.266 195.121L146.977 197.779L133.688 195.121V194.438C133.688 194.339 133.638 194.255 133.631 194.16C139.74 190.629 144.497 185.044 146.969 178.343C149.456 185.059 154.244 190.622 160.323 194.141C160.319 194.244 160.266 194.331 160.266 194.438V195.121ZM90.0274 197.779L76.7345 195.121V194.438C76.7345 194.331 76.6813 194.244 76.6738 194.141C82.7525 190.622 87.5404 185.059 90.0274 178.343C92.5029 185.04 97.2566 190.629 103.366 194.16C103.362 194.255 103.313 194.339 103.313 194.438V195.121L90.0274 197.779ZM88.1251 166.804C85.866 165.486 84.3283 163.064 84.3283 160.266C84.3283 157.467 85.866 155.045 88.1251 153.727V166.804ZM95.7189 167.859V152.444C102.641 151.613 109.046 148.51 114.05 143.506L115.06 142.496L115.463 142.8C122.939 148.408 131.987 151.795 141.281 152.524V167.859C141.281 180.423 131.064 190.641 118.5 190.641C105.936 190.641 95.7189 180.423 95.7189 167.859ZM152.672 160.266C152.672 163.064 151.134 165.486 148.875 166.804V153.727C151.134 155.045 152.672 157.467 152.672 160.266ZM205.828 166.804V153.727C208.087 155.045 209.625 157.467 209.625 160.266C209.625 163.064 208.087 165.486 205.828 166.804ZM176.953 107.109C184.251 107.109 191.028 110.735 195.076 116.81C195.599 117.596 196.397 118.158 197.312 118.39C204.564 120.201 209.625 126.682 209.625 134.155V147.189C207.381 145.883 204.811 145.078 202.031 145.078C193.056 145.078 184.156 142.113 176.972 136.725L173.934 134.447C172.423 133.312 170.308 133.463 168.972 134.8L165.635 138.137C164.055 139.717 162.225 141.038 160.266 142.113V134.155C160.266 127.332 157.354 121.105 152.615 116.708C159.191 110.568 167.86 107.109 176.953 107.109ZM120 107.109C127.297 107.109 134.075 110.735 138.122 116.81C138.646 117.596 139.444 118.158 140.359 118.39C147.611 120.201 152.672 126.682 152.672 134.155V147.189C150.428 145.883 147.858 145.078 145.078 145.078C136.102 145.078 127.203 142.113 120.019 136.725L116.981 134.447C115.47 133.312 113.352 133.463 112.019 134.8L108.681 138.137C104.205 142.614 98.2514 145.078 91.922 145.078C89.1427 145.078 86.5722 145.883 84.3283 147.189V142.777C84.3283 123.109 100.328 107.109 120 107.109ZM63.0468 107.109C70.3444 107.109 77.1218 110.735 81.1693 116.81C81.6932 117.596 82.4906 118.158 83.4094 118.39C83.6524 118.451 83.8726 118.572 84.1118 118.644C79.4569 125.539 76.7345 133.847 76.7345 142.781V143.468C71.8176 142.067 67.155 139.793 63.0658 136.725L60.0283 134.447C58.5171 133.312 56.3984 133.463 55.0657 134.8L51.7283 138.137C47.2518 142.614 41.2983 145.078 34.9689 145.078C32.1896 145.078 29.6191 145.883 27.3751 147.189V142.777C27.3751 123.109 43.3752 107.109 63.0468 107.109ZM27.3751 160.266C27.3751 157.467 28.9129 155.045 31.172 153.727V166.804C28.9129 165.486 27.3751 163.064 27.3751 160.266ZM38.7658 167.859V152.444C45.6875 151.613 52.0928 148.51 57.0971 143.506L58.107 142.496L58.5095 142.8C63.9087 146.851 70.1697 149.684 76.7345 151.248V160.266C76.7345 165.589 79.4986 170.263 83.6562 172.974C81.2945 183.149 72.1631 190.641 61.547 190.641C48.9831 190.641 38.7658 180.423 38.7658 167.859ZM12.0244 220.226C13.9873 213.361 19.5536 208.224 26.555 206.827L50.9044 201.955C52.6775 201.602 53.9533 200.045 53.9533 198.234V197.236C56.3871 197.866 58.9196 198.234 61.547 198.234C64.1593 198.234 66.6994 197.877 69.1408 197.24V198.234C69.1408 200.045 70.4165 201.602 72.1934 201.955L74.1564 202.346C68.1763 205.718 63.6315 211.292 61.6761 218.138L58.6842 228.609H9.62853L12.0244 220.226ZM151.84 228.609L148.761 216.296C148.252 214.261 146.183 213.023 144.156 213.532C142.12 214.041 140.887 216.102 141.391 218.138L144.011 228.609H92.9889L95.605 218.141C96.1138 216.106 94.876 214.045 92.8409 213.536C90.8171 213.027 88.744 214.265 88.2352 216.3L85.1598 228.609H66.5817L68.9775 220.226C70.9405 213.361 76.5067 208.224 83.5081 206.827L107.857 201.955C109.631 201.602 110.906 200.045 110.906 198.234V197.236C113.34 197.866 115.873 198.234 118.5 198.234C121.128 198.234 123.66 197.866 126.094 197.236V198.234C126.094 200.045 127.37 201.602 129.147 201.955L153.496 206.827C160.497 208.228 166.064 213.361 168.027 220.226L170.419 228.609H151.84ZM178.316 228.609L175.324 218.141C173.369 211.296 168.824 205.726 162.844 202.35L164.807 201.959C166.584 201.602 167.859 200.045 167.859 198.234V197.24C170.301 197.877 172.841 198.234 175.453 198.234C178.081 198.234 180.613 197.866 183.047 197.236V198.234C183.047 200.045 184.323 201.602 186.1 201.955L210.449 206.827C217.45 208.228 223.017 213.361 224.98 220.226L227.372 228.609H178.316Z" fill="black"/>
</svg>
